<svg width="14" height="14" viewBox="0 0 14 14" fill="none" xmlns="http://www.w3.org/2000/svg">
<path d="M12.584 12.7869L8.45173 1.02688C8.41225 0.914884 8.30641 0.839844 8.18769 0.839844H5.81245C5.69373 0.839844 5.58761 0.914884 5.54841 1.02688L1.41617 12.7869C1.38621 12.8726 1.39937 12.9675 1.45173 13.0417C1.50409 13.1159 1.58921 13.1598 1.67993 13.1598H3.46493C3.58365 13.1598 3.68977 13.0848 3.72897 12.9725L4.74565 10.0798H9.25449L10.2709 12.9725C10.3104 13.0848 10.4162 13.1598 10.5349 13.1598H12.3199C12.4107 13.1598 12.4958 13.1159 12.5484 13.0417C12.6011 12.9675 12.6142 12.8728 12.584 12.7869ZM6.91005 3.91984H7.08953L8.56541 8.11984H5.43417L6.91005 3.91984Z" fill="white"/>
</svg>
