<svg width="20" height="20" viewBox="0 0 20 20" fill="none" xmlns="http://www.w3.org/2000/svg">
<path d="M15.3753 8.125C15.0003 7.70833 14.5003 7.5 13.9587 7.5H10.1253C10.042 7.5 10.0003 7.45833 9.95866 7.41667C9.91699 7.33333 9.91699 7.25 9.95866 7.16667C10.292 6.41667 10.5003 5.75 10.667 4.91667C10.792 4.45833 10.8337 4.16667 10.8337 3.875C10.8337 2.66667 9.91699 2.20833 9.45866 2.125C9.37533 2.125 9.29199 2.125 9.25033 2.20833C9.20866 2.25 6.58366 6.04167 5.54199 7.08333C4.66699 7.91667 4.16699 8.95833 4.16699 10V12.75C4.16699 15.125 6.12533 17.0833 8.54199 17.0833H12.417C13.792 17.0833 14.917 16.0833 15.1253 14.7083L15.8337 9.625C15.917 9.08333 15.7503 8.54167 15.3753 8.125Z" fill="black"/>
</svg>
