<svg width="20" height="20" viewBox="0 0 20 20" fill="none" xmlns="http://www.w3.org/2000/svg">
<path d="M10 2.5C5.86417 2.5 2.5 5.865 2.5 10H4.16667C4.16667 6.78333 6.78417 4.16667 10 4.16667C11.8209 4.16667 13.4377 5.014 14.5068 6.3265L12.5 8.33333H17.5V3.33333L15.695 5.13835C14.3207 3.52639 12.2804 2.5 10 2.5ZM15.8333 10C15.8333 13.2158 13.2158 15.8333 10 15.8333C8.17909 15.8333 6.56233 14.986 5.49316 13.6735L7.5 11.6667H2.5V16.6667L4.30501 14.8617C5.6793 16.4736 7.71962 17.5 10 17.5C14.1358 17.5 17.5 14.1358 17.5 10H15.8333Z" fill="#94969C"/>
</svg>
